<svg width="55" height="55" viewBox="0 0 55 55" fill="none" xmlns="http://www.w3.org/2000/svg">
<circle cx="27.0414" cy="27.0414" r="25" transform="rotate(-4.89327 27.0414 27.0414)" fill="url(#paint0_linear_3_6)"/>
<g filter="url(#filter0_d_3_6)">
<path d="M30.7284 34.9983L30.444 36.1983C29.5905 36.545 28.9095 36.8072 28.4009 36.985C27.8922 37.1717 27.3017 37.265 26.6293 37.265C25.5948 37.265 24.7888 37.0072 24.2112 36.4917C23.6422 35.9672 23.3578 35.305 23.3578 34.505C23.3578 34.1939 23.3793 33.8783 23.4224 33.5583C23.4655 33.2295 23.5345 32.8606 23.6293 32.4517L24.6897 28.5583C24.7845 28.185 24.8621 27.8339 24.9224 27.505C24.9914 27.1672 25.0259 26.8606 25.0259 26.585C25.0259 26.0872 24.9267 25.7406 24.7284 25.545C24.5302 25.3495 24.1509 25.2517 23.5905 25.2517C23.3147 25.2517 23.0302 25.2961 22.7371 25.385C22.4526 25.4739 22.2069 25.5583 22 25.6383L22.2845 24.4383C22.9828 24.145 23.6509 23.8961 24.2888 23.6917C24.9267 23.4783 25.5302 23.3717 26.0991 23.3717C27.125 23.3717 27.9138 23.6295 28.4655 24.145C29.0259 24.6517 29.306 25.3139 29.306 26.1317C29.306 26.3006 29.2845 26.5983 29.2414 27.025C29.2069 27.4517 29.1379 27.8428 29.0345 28.1983L27.9741 32.0783C27.8879 32.3895 27.8103 32.745 27.7414 33.145C27.6724 33.545 27.6379 33.8472 27.6379 34.0517C27.6379 34.5672 27.75 34.9183 27.9741 35.105C28.1983 35.2917 28.5862 35.385 29.1379 35.385C29.3966 35.385 29.6897 35.3406 30.0172 35.2517C30.3448 35.1539 30.5819 35.0695 30.7284 34.9983ZM31 18.7183C31 19.3939 30.75 19.9717 30.25 20.4517C29.7586 20.9228 29.1638 21.1583 28.4655 21.1583C27.7672 21.1583 27.1681 20.9228 26.6681 20.4517C26.1681 19.9717 25.9181 19.3939 25.9181 18.7183C25.9181 18.0428 26.1681 17.465 26.6681 16.985C27.1681 16.505 27.7672 16.265 28.4655 16.265C29.1638 16.265 29.7586 16.505 30.25 16.985C30.75 17.465 31 18.0428 31 18.7183Z" fill="url(#paint1_linear_3_6)"/>
</g>
<defs>
<filter id="filter0_d_3_6" x="14" y="9.26501" width="33" height="45" filterUnits="userSpaceOnUse" color-interpolation-filters="sRGB">
<feFlood flood-opacity="0" result="BackgroundImageFix"/>
<feColorMatrix in="SourceAlpha" type="matrix" values="0 0 0 0 0 0 0 0 0 0 0 0 0 0 0 0 0 0 127 0" result="hardAlpha"/>
<feOffset dx="4" dy="5"/>
<feGaussianBlur stdDeviation="6"/>
<feColorMatrix type="matrix" values="0 0 0 0 0.00416667 0 0 0 0 0.00416667 0 0 0 0 0.00416667 0 0 0 0.25 0"/>
<feBlend mode="normal" in2="BackgroundImageFix" result="effect1_dropShadow_3_6"/>
<feBlend mode="normal" in="SourceGraphic" in2="effect1_dropShadow_3_6" result="shape"/>
</filter>
<linearGradient id="paint0_linear_3_6" x1="23.6426" y1="7.63937" x2="31.9696" y2="35.0958" gradientUnits="userSpaceOnUse">
<stop stop-color="#8E66E5"/>
<stop offset="1" stop-color="#33196B"/>
</linearGradient>
<linearGradient id="paint1_linear_3_6" x1="25.6109" y1="20.1241" x2="33.3303" y2="26.4138" gradientUnits="userSpaceOnUse">
<stop stop-color="white"/>
<stop offset="1" stop-color="#FFEBED"/>
</linearGradient>
</defs>
</svg>
