<svg width="11" height="10" viewBox="0 0 11 10" fill="none" xmlns="http://www.w3.org/2000/svg">
<path fill-rule="evenodd" clip-rule="evenodd" d="M5.49992 4.40872C5.14242 4.40872 4.80692 4.54226 4.54842 4.7933C4.29542 5.039 4.15792 5.36481 4.16342 5.70132V5.70666C4.16342 6.05384 4.30092 6.37966 4.55392 6.62536C4.80692 6.87106 5.14242 7.00459 5.49992 7.00459C6.23692 7.00459 6.83092 6.42239 6.83642 5.70666C6.83642 5.35947 6.69892 5.03365 6.44592 4.78796C6.19292 4.54226 5.85742 4.40872 5.49992 4.40872ZM8.58554 4.4461C8.31054 4.4461 8.09054 4.23245 8.09054 3.96538C8.09054 3.69832 8.31054 3.47933 8.58554 3.47933C8.86054 3.47933 9.08604 3.69832 9.08604 3.96538C9.08604 4.23245 8.86054 4.4461 8.58554 4.4461ZM7.02359 7.1916C6.63309 7.57083 6.09409 7.80585 5.50009 7.80585C4.92259 7.80585 4.38359 7.58685 3.97109 7.1916C3.56409 6.791 3.33859 6.26756 3.33859 5.70672C3.33309 5.15123 3.55859 4.62778 3.96559 4.22718C4.37809 3.82659 4.92259 3.60759 5.50009 3.60759C6.07759 3.60759 6.62209 3.82659 7.02909 4.22184C7.43609 4.62244 7.66159 5.15123 7.66159 5.70672C7.65609 6.28892 7.41409 6.81237 7.02359 7.1916ZM8.602 1.97839C8.5525 1.97839 8.514 1.95168 8.492 1.91429L8.437 1.79678C8.2885 1.49233 8.118 1.13981 8.0135 0.936837C7.7605 0.456121 7.326 0.189057 6.7925 0.183716H4.202C3.6685 0.189057 3.2395 0.456121 2.9865 0.936837C2.8765 1.15049 2.6895 1.53506 2.5355 1.8502L2.5025 1.91429C2.486 1.95702 2.442 1.97839 2.398 1.97839C1.0725 1.97839 0 3.02528 0 4.30719V7.47991C0 8.76182 1.0725 9.80872 2.398 9.80872H8.602C9.922 9.80872 11 8.76182 11 7.47991V4.30719C11 3.02528 9.922 1.97839 8.602 1.97839Z" fill="white"/>
</svg>
