<svg width="51" height="52" viewBox="0 0 51 52" fill="none" xmlns="http://www.w3.org/2000/svg">
<rect width="50" height="50" rx="25" fill="url(#paint0_linear_3_7)"/>
<g filter="url(#filter0_d_3_7)">
<path d="M33.8281 24.446C34.2247 23.8773 34.4443 23.1805 34.4443 22.4555C34.4443 21.3053 33.8517 20.2166 32.8978 19.6095C32.6522 19.4532 32.3726 19.3709 32.0879 19.3712H26.426L26.5676 16.2229C26.6007 15.4621 26.3528 14.7397 25.8711 14.1889C25.6347 13.9174 25.3496 13.7014 25.0332 13.5543C24.7168 13.4071 24.376 13.3319 24.0318 13.3333C22.804 13.3333 21.7179 14.2299 21.3921 15.5133L19.3639 23.4802H19.3568V34.4444H30.5083C30.7256 34.4444 30.9381 34.3983 31.134 34.306C32.2579 33.786 32.9828 32.5948 32.9828 31.273C32.9828 30.9502 32.9403 30.6325 32.8553 30.3251C33.2519 29.7564 33.4715 29.0596 33.4715 28.3347C33.4715 28.0119 33.429 27.6942 33.344 27.3868C33.7407 26.8181 33.9603 26.1214 33.9603 25.3964C33.9556 25.0736 33.9131 24.7534 33.8281 24.446V24.446ZM15.5554 24.3L15.5554 33.6246C15.5554 34.078 15.8931 34.4444 16.311 34.4444H17.8457V23.4802H16.311C15.8931 23.4802 15.5554 23.8465 15.5554 24.3Z" fill="url(#paint1_linear_3_7)"/>
</g>
<defs>
<filter id="filter0_d_3_7" x="7.55542" y="6.33325" width="42.8889" height="45.1111" filterUnits="userSpaceOnUse" color-interpolation-filters="sRGB">
<feFlood flood-opacity="0" result="BackgroundImageFix"/>
<feColorMatrix in="SourceAlpha" type="matrix" values="0 0 0 0 0 0 0 0 0 0 0 0 0 0 0 0 0 0 127 0" result="hardAlpha"/>
<feOffset dx="4" dy="5"/>
<feGaussianBlur stdDeviation="6"/>
<feColorMatrix type="matrix" values="0 0 0 0 0.00416667 0 0 0 0 0.00416667 0 0 0 0 0.00416667 0 0 0 0.25 0"/>
<feBlend mode="normal" in2="BackgroundImageFix" result="effect1_dropShadow_3_7"/>
<feBlend mode="normal" in="SourceGraphic" in2="effect1_dropShadow_3_7" result="shape"/>
</filter>
<linearGradient id="paint0_linear_3_7" x1="20.0604" y1="9.1884" x2="35.6311" y2="36.9495" gradientUnits="userSpaceOnUse">
<stop stop-color="#FFFB00"/>
<stop offset="1" stop-color="#9EE717"/>
</linearGradient>
<linearGradient id="paint1_linear_3_7" x1="23.1338" y1="17.2128" x2="30.0573" y2="28.9899" gradientUnits="userSpaceOnUse">
<stop stop-color="white"/>
<stop offset="1" stop-color="#FFEBED"/>
</linearGradient>
</defs>
</svg>
